<svg width="488" height="593" viewBox="0 0 488 593" fill="none" xmlns="http://www.w3.org/2000/svg">
<g filter="url(#filter0_i_2002_20)">
<path d="M244.164 592.285C241.82 592.285 238.891 591.797 235.375 590.82C231.859 589.844 228.246 588.379 224.535 586.426C182.934 562.988 147.777 542.188 119.066 524.023C90.5508 505.859 67.6016 488.281 50.2188 471.289C32.8359 454.297 20.2383 435.938 12.4258 416.211C4.61328 396.484 0.707031 373.242 0.707031 346.484V122.363C0.707031 106.934 3.92969 95.8984 10.375 89.2578C17.0156 82.4219 26.4883 76.4648 38.793 71.3867C45.6289 68.457 55.1016 64.6484 67.2109 59.9609C79.3203 55.2734 92.6992 50.1953 107.348 44.7266C121.996 39.2578 136.547 33.8867 151 28.6133C165.648 23.1445 179.027 18.3594 191.137 14.2578C203.246 9.96094 212.816 6.83594 219.848 4.88281C223.754 3.90625 227.758 2.92969 231.859 1.95312C235.961 0.976563 240.062 0.488281 244.164 0.488281C248.266 0.488281 252.367 0.976563 256.469 1.95312C260.766 2.73438 264.867 3.71094 268.773 4.88281C275.609 7.22656 285.082 10.5469 297.191 14.8438C309.301 19.1406 322.68 23.9258 337.328 29.1992C351.977 34.4727 366.527 39.8437 380.98 45.3125C395.629 50.5859 409.008 55.5664 421.117 60.2539C433.227 64.7461 442.699 68.457 449.535 71.3867C462.035 76.6602 471.508 82.6172 477.953 89.2578C484.398 95.8984 487.621 106.934 487.621 122.363V346.484C487.621 373.242 483.715 396.582 475.902 416.504C468.285 436.23 455.785 454.59 438.402 471.582C421.02 488.574 397.973 506.055 369.262 524.023C340.746 542.188 305.59 562.988 263.793 586.426C260.082 588.379 256.469 589.844 252.953 590.82C249.438 591.797 246.508 592.285 244.164 592.285ZM244.164 539.258C246.508 539.258 249.047 538.672 251.781 537.5C254.516 536.523 258.031 534.766 262.328 532.227C296.117 511.719 324.438 494.043 347.289 479.199C370.336 464.355 388.695 450.293 402.367 437.012C416.234 423.73 426.098 409.18 431.957 393.359C438.012 377.539 441.039 358.301 441.039 335.645V131.445C441.039 126.562 440.355 122.852 438.988 120.312C437.816 117.773 435.277 115.82 431.371 114.453C422.191 111.328 411.645 107.715 399.73 103.613C388.012 99.3164 375.609 94.8242 362.523 90.1367C349.633 85.4492 336.645 80.7617 323.559 76.0742C310.668 71.1914 298.363 66.6016 286.645 62.3047C274.926 57.8125 264.672 53.8086 255.883 50.293C253.539 49.3164 251.391 48.6328 249.438 48.2422C247.484 47.8516 245.727 47.6562 244.164 47.6562C242.602 47.6562 240.844 47.8516 238.891 48.2422C236.938 48.6328 234.789 49.3164 232.445 50.293C223.656 53.8086 213.402 57.7148 201.684 62.0117C189.965 66.3086 177.562 70.8008 164.477 75.4883C151.391 79.9805 138.305 84.5703 125.219 89.2578C112.133 93.9453 99.7305 98.4375 88.0117 102.734C76.293 107.031 66.0391 110.938 57.25 114.453C53.1484 116.016 50.4141 118.066 49.0469 120.605C47.875 122.949 47.2891 126.562 47.2891 131.445V335.645C47.2891 358.301 50.3164 377.539 56.3711 393.359C62.4258 409.18 72.2891 423.828 85.9609 437.305C99.6328 450.586 117.895 464.648 140.746 479.492C163.793 494.141 192.211 511.719 226 532.227C230.297 534.766 233.812 536.523 236.547 537.5C239.281 538.672 241.82 539.258 244.164 539.258Z" fill="#C6C6C6"/>
</g>
<defs>
<filter id="filter0_i_2002_20" x="0.707031" y="0.488281" width="486.914" height="595.797" filterUnits="userSpaceOnUse" color-interpolation-filters="sRGB">
<feFlood flood-opacity="0" result="BackgroundImageFix"/>
<feBlend mode="normal" in="SourceGraphic" in2="BackgroundImageFix" result="shape"/>
<feColorMatrix in="SourceAlpha" type="matrix" values="0 0 0 0 0 0 0 0 0 0 0 0 0 0 0 0 0 0 127 0" result="hardAlpha"/>
<feOffset dy="4"/>
<feGaussianBlur stdDeviation="2"/>
<feComposite in2="hardAlpha" operator="arithmetic" k2="-1" k3="1"/>
<feColorMatrix type="matrix" values="0 0 0 0 0 0 0 0 0 0 0 0 0 0 0 0 0 0 0.31 0"/>
<feBlend mode="normal" in2="shape" result="effect1_innerShadow_2002_20"/>
</filter>
</defs>
</svg>
